<svg xmlns="http://www.w3.org/2000/svg" viewBox="0 0 64 64" role="img" aria-label="DeepSeek">
  <rect width="64" height="64" rx="18" fill="#EEF7F6"/>
  <path d="M18 34c0-10 7.5-18 17.5-18 6.4 0 11.7 3 14.8 7.6-2.5-1.1-5.5-.8-8 .9-3.3 2.2-4.4 6.3-2.9 9.7 1.2 2.7 3.8 4.2 6.7 4.5-3.1 5.5-9 9.3-16 9.3C23.3 48 18 42.8 18 34Z" fill="#2A9D8F"/>
  <path d="M31 24c4.5 0 8.2 3.7 8.2 8.2 0 4.5-3.7 8.2-8.2 8.2-4.5 0-8.2-3.7-8.2-8.2 0-4.5 3.7-8.2 8.2-8.2Z" fill="#F8FBFA"/>
  <path d="M31 28.3a3.9 3.9 0 1 1 0 7.8 3.9 3.9 0 0 1 0-7.8Z" fill="#1E6F67"/>
</svg>
