<svg xmlns="http://www.w3.org/2000/svg" viewBox="0 0 64 64" role="img" aria-label="Qwen">
  <rect width="64" height="64" rx="18" fill="#EEF3FF"/>
  <path d="M17 32c0-8.8 6.9-16 15.4-16 8.5 0 15.4 7.2 15.4 16 0 3.4-1 6.5-2.8 9.1l4.5 4.7-5.1 4.9-4.5-4.7c-2.2 1.3-4.8 2-7.5 2C23.9 48 17 40.8 17 32Z" fill="#4E7CFF"/>
  <path d="M25 32c0-4.5 3.3-8.1 7.4-8.1s7.4 3.6 7.4 8.1c0 4.5-3.3 8.1-7.4 8.1S25 36.5 25 32Z" fill="#F8FAFF"/>
  <path d="M36.5 37.6 46 47.4" stroke="#243B86" stroke-width="4" stroke-linecap="round"/>
</svg>
